<?xml version="1.0" standalone="no"?>
<!DOCTYPE svg PUBLIC "-//W3C//DTD SVG 20010904//EN"
 "http://www.w3.org/TR/2001/REC-SVG-20010904/DTD/svg10.dtd">
<svg version="1.0" xmlns="http://www.w3.org/2000/svg"
 width="1280.000000pt" height="720.000000pt" viewBox="0 0 1280.000000 720.000000"
 preserveAspectRatio="xMidYMid meet">
<metadata>
Created by potrace 1.15, written by Peter Selinger 2001-2017
</metadata>
<g transform="translate(0.000000,720.000000) scale(0.100000,-0.100000)"
fill="#000000" stroke="none">
<path d="M0 3600 l0 -3600 6400 0 6400 0 0 3600 0 3600 -6400 0 -6400 0 0
-3600z m6505 1124 c19 -16 168 -198 330 -404 307 -390 312 -399 283 -453 -28
-54 -202 -258 -224 -263 -15 -4 -51 5 -98 25 -101 42 -222 70 -336 77 -86 6
-106 11 -203 55 -59 27 -112 49 -117 49 -6 0 -10 4 -10 10 0 5 -3 9 -7 8 -5
-1 -30 9 -58 22 -27 13 -52 24 -55 25 -11 3 -109 48 -163 76 -31 16 -63 29
-70 29 -6 0 -20 7 -30 15 -18 13 -11 24 101 172 249 327 437 556 472 575 53
29 139 21 185 -18z m555 -1443 l0 -99 28 28 c56 56 165 49 202 -13 17 -27 20
-51 20 -154 l0 -123 -25 0 -25 0 0 113 c-1 116 -6 133 -47 155 -31 17 -64 15
-100 -8 -40 -24 -53 -67 -53 -177 0 -82 0 -83 -25 -83 l-25 0 0 230 0 230 25
0 c25 0 25 0 25 -99z m-2370 -1 l0 -40 50 0 c43 0 50 -3 50 -20 0 -17 -7 -20
-50 -20 l-50 0 0 -102 c0 -57 4 -109 9 -117 6 -10 21 -12 49 -9 34 5 41 3 45
-13 12 -44 -88 -55 -128 -14 -24 23 -25 30 -25 140 l0 115 -25 0 c-18 0 -25 5
-25 20 0 15 7 20 25 20 23 0 25 4 25 40 0 36 3 40 25 40 23 0 25 -4 25 -40z
m-305 -44 c54 -23 65 -57 65 -196 l0 -120 -25 0 c-18 0 -25 5 -25 20 0 20 0
20 -32 0 -42 -26 -124 -27 -154 -2 -45 36 -56 91 -26 128 28 35 56 44 136 44
62 0 76 3 76 16 0 19 -19 56 -34 66 -20 13 -96 8 -128 -8 -25 -13 -32 -14 -39
-2 -13 20 -11 26 13 39 57 31 121 36 173 15z m625 -18 l0 -31 23 20 c33 31 62
43 99 43 40 0 98 -34 105 -60 5 -17 9 -16 37 15 40 42 93 54 150 34 62 -22 76
-59 76 -201 l0 -118 -25 0 -25 0 0 105 c0 57 -5 115 -11 128 -19 43 -74 58
-124 35 -42 -19 -58 -62 -63 -170 -5 -95 -5 -98 -28 -98 -24 0 -24 1 -24 114
0 134 -9 154 -77 163 -39 5 -46 2 -78 -30 l-35 -35 0 -106 0 -106 -25 0 -25 0
0 165 0 165 25 0 c21 0 25 -5 25 -32z m880 10 c89 -45 116 -165 54 -245 -67
-88 -209 -84 -272 8 -20 29 -23 44 -20 99 4 77 24 110 83 140 52 26 100 25
155 -2z m416 7 c31 -13 34 -17 24 -35 -9 -17 -15 -18 -31 -10 -29 16 -94 16
-113 1 -38 -32 -12 -59 86 -91 64 -20 95 -80 68 -131 -25 -45 -117 -63 -184
-35 -38 16 -50 31 -42 51 4 12 12 11 48 -5 74 -34 138 -20 138 29 0 25 -15 35
-79 56 -30 10 -65 29 -78 43 -76 83 44 177 163 127z m254 -21 l0 -37 21 26
c57 73 201 52 242 -36 24 -49 22 -134 -3 -175 -32 -53 -75 -74 -143 -69 -46 3
-63 9 -87 32 l-30 29 0 -92 c0 -91 0 -92 -25 -92 l-25 0 0 225 0 225 25 0 c22
0 25 -4 25 -36z m1134 22 c46 -19 78 -68 84 -127 l5 -49 -132 0 c-147 0 -157
-6 -103 -60 41 -40 91 -48 144 -21 31 15 45 18 55 9 30 -25 -46 -68 -119 -68
-95 0 -158 63 -158 159 0 74 24 119 80 148 49 26 96 29 144 9z m296 -18 l0
-32 28 28 c37 34 86 40 90 10 2 -17 -4 -23 -26 -27 -17 -3 -43 -17 -58 -31
-28 -24 -29 -27 -32 -135 -4 -110 -4 -111 -28 -111 l-24 0 0 165 0 165 25 0
c21 0 25 -5 25 -32z m454 18 c46 -19 78 -68 84 -127 l5 -49 -132 0 c-147 0
-157 -6 -103 -60 41 -40 91 -48 144 -21 31 15 45 18 55 9 30 -25 -46 -68 -119
-68 -95 0 -158 63 -158 159 0 74 24 119 80 148 49 26 96 29 144 9z m-2120
-2372 c33 -32 11 -64 -44 -64 -57 0 -80 -28 -80 -97 0 -44 -5 -62 -22 -80
l-21 -23 21 -23 c17 -18 22 -36 22 -80 0 -69 23 -97 81 -97 42 0 64 -20 54
-49 -8 -27 -43 -35 -92 -22 -78 21 -123 79 -123 157 0 24 -8 46 -25 66 -14 16
-25 38 -25 48 0 10 11 32 25 48 17 20 25 42 25 66 0 74 37 127 107 152 51 18
78 17 97 -2z m276 -13 c43 -31 70 -80 70 -129 0 -35 6 -51 30 -79 17 -18 30
-38 30 -43 0 -5 -13 -25 -30 -43 -23 -27 -30 -44 -30 -76 0 -79 -55 -144 -133
-155 -61 -9 -79 -1 -75 38 3 26 7 31 33 34 81 7 105 34 105 118 0 30 6 54 17
66 15 17 15 19 0 36 -11 12 -17 36 -17 66 0 84 -24 111 -105 118 -25 3 -31 8
-33 32 -2 16 2 33 10 38 19 13 99 0 128 -21z m-152 -157 c29 -20 29 -67 1 -93
l-21 -20 25 -45 c16 -28 21 -46 14 -46 -7 0 -23 20 -37 45 -21 39 -29 45 -57
45 -32 0 -33 -1 -33 -45 0 -25 -4 -45 -10 -45 -6 0 -10 43 -10 110 l0 110 53
0 c31 0 61 -6 75 -16z"/>
<path d="M4248 3063 c-20 -5 -33 -44 -24 -68 25 -66 176 -24 176 50 0 24 -2
25 -67 24 -38 -1 -76 -3 -85 -6z"/>
<path d="M5734 3166 c-29 -29 -34 -41 -34 -81 0 -138 177 -169 220 -38 15 45
5 87 -32 123 -24 24 -38 30 -75 30 -38 0 -50 -5 -79 -34z"/>
<path d="M6600 3172 c-61 -62 -45 -157 33 -196 77 -37 157 17 157 107 0 75
-44 117 -121 117 -31 0 -47 -7 -69 -28z"/>
<path d="M7549 3171 c-53 -53 -43 -61 76 -61 96 0 105 2 105 19 0 10 -12 30
-26 45 -22 21 -36 26 -76 26 -41 0 -54 -5 -79 -29z"/>
<path d="M8299 3171 c-53 -53 -43 -61 76 -61 96 0 105 2 105 19 0 10 -12 30
-26 45 -22 21 -36 26 -76 26 -41 0 -54 -5 -79 -29z"/>
<path d="M6235 850 c-62 -19 -95 -68 -95 -144 0 -32 -6 -48 -25 -66 -14 -13
-25 -31 -25 -40 0 -9 11 -27 25 -40 19 -18 25 -33 25 -68 0 -87 49 -141 132
-145 33 -2 43 2 46 16 3 14 -4 17 -38 17 -33 0 -48 6 -71 29 -25 25 -29 37
-29 82 0 44 -5 58 -27 81 l-27 28 27 28 c22 23 27 37 27 81 0 45 4 57 29 82
23 23 38 29 71 29 34 0 41 3 38 18 -4 20 -39 25 -83 12z"/>
</g>
</svg>
